<?xml version="1.0" encoding="UTF-8" standalone="no"?>
<!DOCTYPE svg PUBLIC "-//W3C//DTD SVG 1.0//EN" "http://www.w3.org/TR/2001/PR-SVG-20010719/DTD/svg10.dtd">
<svg width="25cm" height="15cm" viewBox="236 89 489 293" xmlns="http://www.w3.org/2000/svg" xmlns:xlink="http://www.w3.org/1999/xlink">
  <text font-size="12.7998" style="fill: #000000;text-anchor:middle;font-family:sans-serif;font-style:normal;font-weight:normal" x="276.689" y="184.431">
    <tspan x="276.689" y="184.431">Simulating...</tspan>
  </text>
  <g>
    <line style="fill: none; fill-opacity:0; stroke-width: 2; stroke: #000000" x1="360" y1="220" x2="549" y2="220"/>
    <polygon style="fill: #000000" points="549,225 559,220 549,215 "/>
    <polygon style="fill: none; fill-opacity:0; stroke-width: 2; stroke: #000000" points="549,225 559,220 549,215 "/>
  </g>
  <text font-size="12.7998" style="fill: #000000;text-anchor:middle;font-family:sans-serif;font-style:normal;font-weight:normal" x="460.618" y="209.827">
    <tspan x="460.618" y="209.827">Something happened</tspan>
  </text>
  <g>
    <path style="fill: none; fill-opacity:0; stroke-width: 2; stroke: #000000" d="M 587.16,267.792 A 20.0033,20.0033 0 0 0 577.477,230.091"/>
    <polygon style="fill: #000000" points="588.567,265.292 578.477,270.109 588.384,275.291 "/>
    <polygon style="fill: none; fill-opacity:0; stroke-width: 2; stroke: #000000" points="588.567,265.292 578.477,270.109 588.384,275.291 "/>
  </g>
  <text font-size="12.7998" style="fill: #000000;text-anchor:middle;font-family:sans-serif;font-style:normal;font-weight:normal" x="663.659" y="255.935">
    <tspan x="663.659" y="255.935">Making decisions...</tspan>
  </text>
  <g>
    <line style="fill: none; fill-opacity:0; stroke-width: 2; stroke: #000000" x1="560" y1="280" x2="371" y2="280"/>
    <polygon style="fill: #000000" points="371,275 361,280 371,285 "/>
    <polygon style="fill: none; fill-opacity:0; stroke-width: 2; stroke: #000000" points="371,275 361,280 371,285 "/>
  </g>
  <text font-size="12.7998" style="fill: #000000;text-anchor:middle;font-family:sans-serif;font-style:normal;font-weight:normal" x="459.382" y="273.642">
    <tspan x="459.382" y="273.642">Do this</tspan>
  </text>
  <g>
    <path style="fill: none; fill-opacity:0; stroke-width: 2; stroke: #000000" d="M 343.061,163.03 A 20,20 0 0 0 333.423,200.554"/>
    <polygon style="fill: #000000" points="332.061,208.03 342.061,203.03 332.061,198.03 "/>
    <polygon style="fill: none; fill-opacity:0; stroke-width: 2; stroke: #000000" points="332.061,208.03 342.061,203.03 332.061,198.03 "/>
  </g>
  <text font-size="12.7998" style="fill: #000000;text-anchor:middle;font-family:sans-serif;font-style:normal;font-weight:normal" x="276.875" y="325.992">
    <tspan x="276.875" y="325.992">Simulating...</tspan>
  </text>
  <g>
    <path style="fill: none; fill-opacity:0; stroke-width: 2; stroke: #000000" d="M 343.061,304.591 A 20,20 0 0 0 333.423,342.116"/>
    <polygon style="fill: #000000" points="332.061,349.591 342.061,344.591 332.061,339.591 "/>
    <polygon style="fill: none; fill-opacity:0; stroke-width: 2; stroke: #000000" points="332.061,349.591 342.061,344.591 332.061,339.591 "/>
  </g>
  <g>
    <line style="fill: none; fill-opacity:0; stroke-width: 2; stroke-dasharray: 5; stroke: #000000" x1="351.608" y1="146.989" x2="351.608" y2="369"/>
    <polygon style="fill: #000000" points="346.608,369 351.608,379 356.608,369 "/>
    <polygon style="fill: none; fill-opacity:0; stroke-width: 2; stroke: #000000" points="346.608,369 351.608,379 356.608,369 "/>
  </g>
  <g>
    <line style="fill: none; fill-opacity:0; stroke-width: 2; stroke-dasharray: 5; stroke: #000000" x1="566.93" y1="145.447" x2="566.93" y2="367.458"/>
    <polygon style="fill: #000000" points="561.93,367.458 566.93,377.458 571.93,367.458 "/>
    <polygon style="fill: none; fill-opacity:0; stroke-width: 2; stroke: #000000" points="561.93,367.458 566.93,377.458 571.93,367.458 "/>
  </g>
  <g>
    <rect style="fill: #ffffff" x="316.333" y="92" width="70.55" height="54"/>
    <rect style="fill: none; fill-opacity:0; stroke-width: 2; stroke: #000000" x="316.333" y="92" width="70.55" height="54"/>
    <text font-size="12.7998" style="fill: #000000;text-anchor:middle;font-family:sans-serif;font-style:normal;font-weight:normal" x="351.608" y="114.9">
      <tspan x="351.608" y="114.9">Batsim</tspan>
      <tspan x="351.608" y="130.9">Process</tspan>
    </text>
  </g>
  <g>
    <rect style="fill: #ffffff" x="523.855" y="90.4578" width="86.15" height="54"/>
    <rect style="fill: none; fill-opacity:0; stroke-width: 2; stroke: #000000" x="523.855" y="90.4578" width="86.15" height="54"/>
    <text font-size="12.7998" style="fill: #000000;text-anchor:middle;font-family:sans-serif;font-style:normal;font-weight:normal" x="566.93" y="113.358">
      <tspan x="566.93" y="113.358">Decision</tspan>
      <tspan x="566.93" y="129.358">Process</tspan>
    </text>
  </g>
</svg>
